# xmcd CD database file
# Copyright (C) 1997 Ti Kan
#
# Track frame offsets:
#  150
#  10125
#  31125
#  44325
#  62100
#  72300
#  92100
#  104400
#  121800
#  139350
#  154200
#  174075
#  187875
#  207600
#  217950
#
# Disc length: 3173 seconds
#
# Revision: 1
# Processed by: cddbd v1.4b41PL1 Copyright (c) Steve Scherf et al.
# Submitted via: CDWizzard Release:4.30
#
DISCID=d10c630f
DTITLE=Professor Longhair - House Party New Orleans Style - Lost Sessions
DTITLE=1971-72
DYEAR=1900
DGENRE=
TTITLE0=No Buts and No Maybes
TTITLE1=Gone So Long
TTITLE2=She Walk Right In
TTITLE3=Thank You Pretty Baby
TTITLE4=501 Boogie
TTITLE5=Tipitina
TTITLE6=Gonna Leave This Town
TTITLE7=Cabbagehead
TTITLE8=Hey Little Girl
TTITLE9=Big Chief
TTITLE10=Cherry Pie
TTITLE11=Junco Partner
TTITLE12=Every Day I Have the Blues
TTITLE13="G" Jam
TTITLE14=Dr. Professor Longhair
EXTD=
EXTT0=
EXTT1=
EXTT2=
EXTT3=
EXTT4=
EXTT5=
EXTT6=
EXTT7=
EXTT8=
EXTT9=
EXTT10=
EXTT11=
EXTT12=
EXTT13=
EXTT14=
PLAYORDER=
